<svg width="30" height="31" viewBox="0 0 30 31" fill="none" xmlns="http://www.w3.org/2000/svg">
<g clip-path="url(#clip0_109_80)">
<path d="M29.9999 16.1722C29.9999 15.1464 29.9156 14.1151 29.7356 13.106H15.3008V18.9169H23.5669C23.2239 20.7911 22.1218 22.449 20.5079 23.5025V27.273H25.4395C28.3355 24.6447 29.9999 20.7634 29.9999 16.1722Z" fill="#4285F4"/>
<path d="M15.3008 30.9159C19.4283 30.9159 22.9091 29.5796 25.4452 27.2729L20.5136 23.5025C19.1415 24.4229 17.3702 24.9441 15.3065 24.9441C11.314 24.9441 7.92878 22.2881 6.71416 18.7173H1.62512V22.6042C4.22306 27.6999 9.51453 30.9159 15.3008 30.9159Z" fill="#34A853"/>
<path d="M6.70853 18.7174C6.06748 16.8432 6.06748 14.8138 6.70853 12.9397V9.05273H1.62512C-0.545451 13.3167 -0.545451 18.3403 1.62512 22.6043L6.70853 18.7174Z" fill="#FBBC04"/>
<path d="M15.3008 6.70716C17.4827 6.67389 19.5914 7.48344 21.1715 8.96945L25.5408 4.66112C22.7741 2.09942 19.1022 0.691033 15.3008 0.735392C9.51453 0.735392 4.22306 3.95139 1.62512 9.05262L6.70853 12.9395C7.91753 9.36313 11.3083 6.70716 15.3008 6.70716Z" fill="#EA4335"/>
</g>
<defs>
<clipPath id="clip0_109_80">
<rect width="30" height="30.1805" fill="white" transform="translate(0 0.203613)"/>
</clipPath>
</defs>
</svg>
