<svg width="20" height="20" viewBox="0 0 20 20" fill="none" xmlns="http://www.w3.org/2000/svg">
<path d="M14.4167 0.890173C17.0573 0.890173 19.2031 3.27746 19.2031 6.22543C19.2031 7.73988 18.6354 9.10404 17.7292 10.0751L10 18.7341L2.13542 9.91908C1.3125 8.95954 0.802083 7.65896 0.802083 6.22543C0.802083 3.27746 2.94271 0.890173 5.58854 0.890173C7.57812 0.890173 9.28125 2.24277 10.0052 4.17341C10.7188 2.24855 12.4271 0.890173 14.4167 0.890173ZM14.4167 0C12.6562 0 11.0417 0.913295 10 2.41619C8.95833 0.913295 7.34375 0 5.58333 0C2.50521 0 0 2.79191 0 6.22543C0 7.83815 0.552083 9.36994 1.55729 10.5376L9.43229 19.3642L10 20L10.5677 19.3642L18.2917 10.7052C19.3854 9.53179 20 7.93642 20 6.22543C20 2.79191 17.4948 0 14.4167 0Z" fill="white"/>
</svg>
